# xmcd CD database file
#
# Track frame offsets:
#	150
#	18712
#	45450
#
# Disc length: 850 seconds
#
# Revision: 1
# Processed by: cddbd v1.5PL3 Copyright (c) Steve Scherf et al.
# Submitted via: CDex 1.51
#
DISCID=1d035003
DTITLE=KIX･S - Dynamite
DYEAR=1996
DGENRE=JPop
TTITLE0=Dynamite
TTITLE1=羽を休めて
TTITLE2=Dynamite (Vocalless)
EXTD=YEAR: 1996
EXTT0=
EXTT1=
EXTT2=
PLAYORDER=
